# xmcd
# Copyright (C) 1995-1998 Ti Kan
#
# Track frame offsets:
#       150
#       15508
#       49335
#       59629
#       89837
#       108451
#       138886
#
# Disc length: 2224 seconds
#
# Revision: 0
# Processed by: cddbd v1.5.2PL0 Copyright (c) Steve Scherf et al.
# Submitted via: CD-Transfer v1.0
#
DISCID=6108ae07
DTITLE=Kozmodrum - Janko Novoseliæ
DYEAR=17
DGENRE=
TTITLE0=Jezgra
TTITLE1=Mountain Lion
TTITLE2=F109
TTITLE3=Otok Potok
TTITLE4=Whisper
TTITLE5=Forever
TTITLE6=Floating
EXTD=
EXTT0=
EXTT1=
EXTT2=
EXTT3=
EXTT4=
EXTT5=
EXTT6=
PLAYORDER=
